<?xml version="1.0" standalone="no"?>
<!DOCTYPE svg PUBLIC "-//W3C//DTD SVG 20010904//EN"
 "http://www.w3.org/TR/2001/REC-SVG-20010904/DTD/svg10.dtd">
<svg version="1.0" xmlns="http://www.w3.org/2000/svg"
 width="199.000000pt" height="95.000000pt" viewBox="0 0 199.000000 95.000000"
 preserveAspectRatio="xMidYMid meet">

<g transform="translate(0.000000,95.000000) scale(0.100000,-0.100000)"
fill="#000000" stroke="none">
<path d="M354 802 c-108 -38 -183 -103 -235 -202 -32 -63 -33 -184 -2 -252 66
-143 208 -228 383 -228 244 0 421 163 408 374 -8 127 -83 226 -216 289 -61 29
-78 32 -177 35 -86 2 -121 -2 -161 -16z m156 -91 c0 -44 12 -38 -148 -76 -57
-14 -112 -30 -123 -36 -64 -34 0 58 67 97 63 37 111 53 162 54 l42 0 0 -39z
m105 19 c-3 -5 -10 -10 -16 -10 -5 0 -9 5 -9 10 0 6 7 10 16 10 8 0 12 -4 9
-10z m133 -73 l23 -24 -33 -28 c-42 -36 -104 -63 -193 -86 -38 -10 -73 -19
-77 -19 -5 0 -8 20 -8 44 0 42 1 44 34 50 41 8 169 70 186 91 14 17 33 9 68
-28z m-378 -140 c0 -43 -1 -44 -54 -66 -29 -12 -68 -33 -87 -46 -37 -28 -43
-24 -54 35 -8 46 10 63 101 95 93 33 94 33 94 -18z m454 12 c14 -70 10 -78
-47 -104 -30 -13 -116 -39 -191 -59 -122 -31 -188 -58 -262 -106 -19 -12 -25
-11 -53 9 -17 12 -31 29 -31 36 0 17 73 68 126 89 22 9 93 29 159 46 114 29
218 70 260 104 28 22 32 20 39 -15z m-45 -210 c-30 -42 -90 -84 -155 -109 -81
-30 -86 -28 -82 27 l3 46 114 28 c62 15 116 30 119 33 3 3 9 6 14 6 5 0 -1
-14 -13 -31z m-319 -100 c0 -28 -3 -31 -22 -25 -13 3 -29 6 -35 6 -21 0 -15
14 15 32 37 24 42 23 42 -13z"/>
<path d="M1100 590 c-14 -26 -13 -51 5 -69 12 -14 12 -21 1 -41 -7 -14 -19
-24 -26 -22 -67 16 -119 -68 -70 -113 18 -16 43 -17 281 -17 216 1 265 4 277
16 13 12 18 12 44 -4 26 -16 45 -17 127 -13 53 3 102 10 109 16 10 8 12 22 7
46 -9 47 -9 118 0 159 14 62 22 61 -381 61 -348 1 -364 0 -374 -19z m120 -30
c0 -5 -4 -10 -10 -10 -6 0 -10 -33 -10 -80 0 -47 4 -80 10 -80 6 0 10 -5 10
-11 0 -6 -12 -9 -27 -7 -23 2 -27 7 -25 26 4 28 -1 28 -32 -3 -29 -29 -83 -34
-93 -10 -8 23 5 31 28 17 17 -11 24 -9 49 16 15 16 34 48 40 72 10 38 10 46
-4 56 -25 18 -19 24 24 24 22 0 40 -4 40 -10z m170 0 c30 -16 42 -45 30 -74
-5 -14 -16 -26 -25 -26 -8 0 -15 -3 -15 -6 0 -15 36 -64 47 -64 7 0 13 -4 13
-10 0 -5 -18 -10 -41 -10 -35 0 -40 2 -34 19 3 11 -3 33 -15 53 -27 44 -25 51
11 43 29 -7 30 -5 27 22 -3 25 -8 28 -40 31 l-38 3 0 -75 c0 -44 4 -76 10 -76
6 0 10 -4 10 -10 0 -5 -18 -10 -40 -10 -22 0 -40 5 -40 10 0 6 5 10 10 10 6 0
10 33 10 80 0 47 -4 80 -10 80 -5 0 -10 5 -10 10 0 13 116 13 140 0z m140 1
c0 -5 -5 -11 -11 -13 -8 -3 -3 -20 13 -51 l24 -48 23 48 c14 30 19 49 12 51
-26 9 -8 22 29 22 22 0 40 -4 40 -10 0 -5 -4 -10 -9 -10 -5 0 -29 -36 -53 -81
-44 -84 -64 -102 -101 -97 -26 4 -30 31 -4 36 9 2 17 -2 17 -8 0 -10 4 -9 15
0 13 11 10 21 -21 81 -20 38 -40 69 -45 69 -5 0 -9 5 -9 10 0 6 18 10 40 10
22 0 40 -4 40 -9z m280 -1 c0 -5 -4 -10 -10 -10 -6 0 -10 -33 -10 -80 0 -47 4
-80 10 -80 6 0 10 -4 10 -10 0 -5 -11 -10 -25 -10 -20 0 -25 5 -25 26 l0 26
-31 -27 c-37 -30 -92 -32 -97 -2 -4 20 34 25 41 5 6 -18 56 29 73 69 19 43 18
83 -1 83 -8 0 -15 5 -15 10 0 6 18 10 40 10 22 0 40 -4 40 -10z m-110 -81
c-17 -32 -15 -30 -34 -23 -21 8 -20 16 5 43 27 29 47 14 29 -20z"/>
</g>
</svg>
