<svg width="154" height="94" viewBox="0 0 154 94" fill="none" xmlns="http://www.w3.org/2000/svg">
<rect width="19.1115" height="62.8948" transform="matrix(0.918211 -0.396091 0.611447 0.791285 68.7393 41.2265)" fill="#333533"/>
<rect x="107.707" y="13.8584" width="17.1457" height="77.0577" fill="#333533"/>
<rect width="19.1115" height="108.205" transform="matrix(0.918211 0.396091 -0.611447 0.791285 100.096 0)" fill="#333533"/>
<path d="M17.604 38.4142H6.66L4.644 43.9942H1.188L10.26 19.0462H14.04L23.076 43.9942H19.62L17.604 38.4142ZM16.668 35.7502L12.132 23.0782L7.596 35.7502H16.668ZM28.7218 21.0622C28.0978 21.0622 27.5698 20.8462 27.1378 20.4142C26.7058 19.9822 26.4898 19.4542 26.4898 18.8302C26.4898 18.2062 26.7058 17.6782 27.1378 17.2462C27.5698 16.8142 28.0978 16.5982 28.7218 16.5982C29.3218 16.5982 29.8258 16.8142 30.2338 17.2462C30.6658 17.6782 30.8818 18.2062 30.8818 18.8302C30.8818 19.4542 30.6658 19.9822 30.2338 20.4142C29.8258 20.8462 29.3218 21.0622 28.7218 21.0622ZM30.3058 24.2662V43.9942H27.0298V24.2662H30.3058ZM34.6652 34.0582C34.6652 32.0422 35.0732 30.2782 35.8892 28.7662C36.7052 27.2302 37.8212 26.0422 39.2372 25.2022C40.6772 24.3622 42.2852 23.9422 44.0612 23.9422C45.5972 23.9422 47.0252 24.3022 48.3452 25.0222C49.6652 25.7182 50.6732 26.6422 51.3692 27.7942V17.3542H54.6812V43.9942H51.3692V40.2862C50.7212 41.4622 49.7612 42.4342 48.4892 43.2022C47.2172 43.9462 45.7292 44.3182 44.0252 44.3182C42.2732 44.3182 40.6772 43.8862 39.2372 43.0222C37.8212 42.1582 36.7052 40.9462 35.8892 39.3862C35.0732 37.8262 34.6652 36.0502 34.6652 34.0582ZM51.3692 34.0942C51.3692 32.6062 51.0692 31.3102 50.4692 30.2062C49.8692 29.1022 49.0532 28.2622 48.0212 27.6862C47.0132 27.0862 45.8972 26.7862 44.6732 26.7862C43.4492 26.7862 42.3332 27.0742 41.3252 27.6502C40.3172 28.2262 39.5132 29.0662 38.9132 30.1702C38.3132 31.2742 38.0132 32.5702 38.0132 34.0582C38.0132 35.5702 38.3132 36.8902 38.9132 38.0182C39.5132 39.1222 40.3172 39.9742 41.3252 40.5742C42.3332 41.1502 43.4492 41.4382 44.6732 41.4382C45.8972 41.4382 47.0132 41.1502 48.0212 40.5742C49.0532 39.9742 49.8692 39.1222 50.4692 38.0182C51.0692 36.8902 51.3692 35.5822 51.3692 34.0942ZM78.2173 33.3742C78.2173 33.9982 78.1813 34.6582 78.1093 35.3542H62.3413C62.4613 37.2982 63.1213 38.8222 64.3213 39.9262C65.5453 41.0062 67.0213 41.5462 68.7493 41.5462C70.1653 41.5462 71.3413 41.2222 72.2773 40.5742C73.2373 39.9022 73.9093 39.0142 74.2933 37.9102H77.8213C77.2933 39.8062 76.2373 41.3542 74.6533 42.5542C73.0693 43.7302 71.1013 44.3182 68.7493 44.3182C66.8773 44.3182 65.1973 43.8982 63.7093 43.0582C62.2453 42.2182 61.0933 41.0302 60.2533 39.4942C59.4133 37.9342 58.9933 36.1342 58.9933 34.0942C58.9933 32.0542 59.4013 30.2662 60.2173 28.7302C61.0333 27.1942 62.1733 26.0182 63.6373 25.2022C65.1253 24.3622 66.8293 23.9422 68.7493 23.9422C70.6213 23.9422 72.2773 24.3502 73.7173 25.1662C75.1573 25.9822 76.2613 27.1102 77.0293 28.5502C77.8213 29.9662 78.2173 31.5742 78.2173 33.3742ZM74.8333 32.6902C74.8333 31.4422 74.5573 30.3742 74.0053 29.4862C73.4533 28.5742 72.6973 27.8902 71.7373 27.4342C70.8013 26.9542 69.7573 26.7142 68.6053 26.7142C66.9493 26.7142 65.5333 27.2422 64.3573 28.2982C63.2053 29.3542 62.5453 30.8182 62.3773 32.6902H74.8333ZM85.8175 27.4702C86.3935 26.3422 87.2095 25.4662 88.2655 24.8422C89.3455 24.2182 90.6535 23.9062 92.1895 23.9062V27.2902H91.3255C87.6535 27.2902 85.8175 29.2822 85.8175 33.2662V43.9942H82.5415V24.2662H85.8175V27.4702Z" fill="#F5CB5C"/>
<path d="M1.152 65.424C1.152 64.08 1.416 62.904 1.944 61.896C2.488 60.872 3.232 60.088 4.176 59.544C5.136 58.984 6.216 58.704 7.416 58.704C8.664 58.704 9.736 58.992 10.632 59.568C11.544 60.144 12.2 60.88 12.6 61.776V58.896H14.28V72H12.6V69.096C12.184 69.992 11.52 70.736 10.608 71.328C9.712 71.904 8.64 72.192 7.392 72.192C6.208 72.192 5.136 71.912 4.176 71.352C3.232 70.792 2.488 70 1.944 68.976C1.416 67.952 1.152 66.768 1.152 65.424ZM12.6 65.448C12.6 64.392 12.384 63.464 11.952 62.664C11.52 61.864 10.928 61.248 10.176 60.816C9.44 60.384 8.624 60.168 7.728 60.168C6.8 60.168 5.968 60.376 5.232 60.792C4.496 61.208 3.912 61.816 3.48 62.616C3.064 63.4 2.856 64.336 2.856 65.424C2.856 66.496 3.064 67.44 3.48 68.256C3.912 69.056 4.496 69.672 5.232 70.104C5.968 70.52 6.8 70.728 7.728 70.728C8.624 70.728 9.44 70.512 10.176 70.08C10.928 69.648 11.52 69.032 11.952 68.232C12.384 67.432 12.6 66.504 12.6 65.448ZM22.6273 72.192C21.1233 72.192 19.8913 71.848 18.9313 71.16C17.9873 70.456 17.4593 69.504 17.3473 68.304H19.0753C19.1553 69.04 19.4993 69.64 20.1073 70.104C20.7313 70.552 21.5633 70.776 22.6033 70.776C23.5153 70.776 24.2273 70.56 24.7393 70.128C25.2673 69.696 25.5313 69.16 25.5313 68.52C25.5313 68.072 25.3873 67.704 25.0993 67.416C24.8113 67.128 24.4433 66.904 23.9953 66.744C23.5633 66.568 22.9713 66.384 22.2193 66.192C21.2433 65.936 20.4513 65.68 19.8433 65.424C19.2353 65.168 18.7153 64.792 18.2833 64.296C17.8673 63.784 17.6593 63.104 17.6593 62.256C17.6593 61.616 17.8513 61.024 18.2353 60.48C18.6193 59.936 19.1633 59.504 19.8673 59.184C20.5713 58.864 21.3713 58.704 22.2673 58.704C23.6753 58.704 24.8113 59.064 25.6753 59.784C26.5393 60.488 27.0033 61.464 27.0673 62.712H25.3873C25.3393 61.944 25.0353 61.328 24.4753 60.864C23.9313 60.384 23.1793 60.144 22.2193 60.144C21.3713 60.144 20.6833 60.344 20.1553 60.744C19.6273 61.144 19.3633 61.64 19.3633 62.232C19.3633 62.744 19.5153 63.168 19.8193 63.504C20.1393 63.824 20.5313 64.08 20.9953 64.272C21.4593 64.448 22.0833 64.648 22.8673 64.872C23.8113 65.128 24.5633 65.376 25.1233 65.616C25.6833 65.856 26.1633 66.208 26.5633 66.672C26.9633 67.136 27.1713 67.752 27.1873 68.52C27.1873 69.224 26.9953 69.856 26.6113 70.416C26.2273 70.96 25.6913 71.392 25.0033 71.712C24.3153 72.032 23.5233 72.192 22.6273 72.192ZM37.4297 72L32.0297 66.12V72H30.3497V54.24H32.0297V64.752L37.3097 58.896H39.6617L33.4457 65.424L39.7097 72H37.4297ZM47.6989 65.424C47.6989 64.08 47.9629 62.904 48.4909 61.896C49.0349 60.872 49.7789 60.088 50.7229 59.544C51.6829 58.984 52.7629 58.704 53.9629 58.704C55.2109 58.704 56.2829 58.992 57.1789 59.568C58.0909 60.144 58.7469 60.88 59.1469 61.776V58.896H60.8269V72H59.1469V69.096C58.7309 69.992 58.0669 70.736 57.1549 71.328C56.2589 71.904 55.1869 72.192 53.9389 72.192C52.7549 72.192 51.6829 71.912 50.7229 71.352C49.7789 70.792 49.0349 70 48.4909 68.976C47.9629 67.952 47.6989 66.768 47.6989 65.424ZM59.1469 65.448C59.1469 64.392 58.9309 63.464 58.4989 62.664C58.0669 61.864 57.4749 61.248 56.7229 60.816C55.9869 60.384 55.1709 60.168 54.2749 60.168C53.3469 60.168 52.5149 60.376 51.7789 60.792C51.0429 61.208 50.4589 61.816 50.0269 62.616C49.6109 63.4 49.4029 64.336 49.4029 65.424C49.4029 66.496 49.6109 67.44 50.0269 68.256C50.4589 69.056 51.0429 69.672 51.7789 70.104C52.5149 70.52 53.3469 70.728 54.2749 70.728C55.1709 70.728 55.9869 70.512 56.7229 70.08C57.4749 69.648 58.0669 69.032 58.4989 68.232C58.9309 67.432 59.1469 66.504 59.1469 65.448ZM70.8062 58.656C72.3742 58.656 73.6542 59.144 74.6462 60.12C75.6382 61.08 76.1342 62.48 76.1342 64.32V72H74.4782V64.512C74.4782 63.088 74.1182 62 73.3982 61.248C72.6942 60.496 71.7262 60.12 70.4942 60.12C69.2302 60.12 68.2222 60.52 67.4702 61.32C66.7182 62.12 66.3422 63.296 66.3422 64.848V72H64.6622V58.896H66.3422V61.128C66.7582 60.328 67.3582 59.72 68.1422 59.304C68.9262 58.872 69.8142 58.656 70.8062 58.656ZM90.6497 58.896L82.8737 78.168H81.1217L83.6657 71.928L78.2897 58.896H80.1377L84.6017 70.08L88.9217 58.896H90.6497ZM95.1118 60.312V68.448C95.1118 69.248 95.2638 69.8 95.5678 70.104C95.8718 70.408 96.4078 70.56 97.1758 70.56H98.7118V72H96.9118C95.7278 72 94.8478 71.728 94.2718 71.184C93.6958 70.624 93.4078 69.712 93.4078 68.448V60.312H91.5838V58.896H93.4078V55.608H95.1118V58.896H98.7118V60.312H95.1118ZM107.723 58.656C108.715 58.656 109.603 58.864 110.387 59.28C111.187 59.696 111.811 60.336 112.259 61.2C112.723 62.048 112.955 63.088 112.955 64.32V72H111.299V64.512C111.299 63.088 110.939 62 110.219 61.248C109.515 60.496 108.547 60.12 107.315 60.12C106.051 60.12 105.043 60.52 104.291 61.32C103.539 62.12 103.163 63.296 103.163 64.848V72H101.483V54.24H103.163V61.128C103.579 60.344 104.187 59.736 104.987 59.304C105.803 58.872 106.715 58.656 107.723 58.656ZM117.51 56.424C117.174 56.424 116.886 56.304 116.646 56.064C116.406 55.824 116.286 55.528 116.286 55.176C116.286 54.824 116.406 54.536 116.646 54.312C116.886 54.072 117.174 53.952 117.51 53.952C117.846 53.952 118.134 54.072 118.374 54.312C118.614 54.536 118.734 54.824 118.734 55.176C118.734 55.528 118.614 55.824 118.374 56.064C118.134 56.304 117.846 56.424 117.51 56.424ZM118.35 58.896V72H116.67V58.896H118.35ZM128.298 58.656C129.866 58.656 131.146 59.144 132.138 60.12C133.13 61.08 133.626 62.48 133.626 64.32V72H131.97V64.512C131.97 63.088 131.61 62 130.89 61.248C130.186 60.496 129.218 60.12 127.986 60.12C126.722 60.12 125.714 60.52 124.962 61.32C124.21 62.12 123.834 63.296 123.834 64.848V72H122.154V58.896H123.834V61.128C124.25 60.328 124.85 59.72 125.634 59.304C126.418 58.872 127.306 58.656 128.298 58.656ZM142.838 58.704C144.07 58.704 145.142 58.992 146.054 59.568C146.966 60.144 147.622 60.872 148.022 61.752V58.896H149.702V72.336C149.702 73.536 149.438 74.6 148.91 75.528C148.398 76.456 147.678 77.168 146.75 77.664C145.822 78.176 144.766 78.432 143.582 78.432C141.902 78.432 140.502 78.032 139.382 77.232C138.278 76.432 137.59 75.344 137.318 73.968H138.974C139.262 74.88 139.806 75.608 140.606 76.152C141.422 76.696 142.414 76.968 143.582 76.968C144.43 76.968 145.19 76.784 145.862 76.416C146.534 76.064 147.062 75.536 147.446 74.832C147.83 74.128 148.022 73.296 148.022 72.336V69.096C147.606 69.992 146.942 70.736 146.03 71.328C145.134 71.904 144.07 72.192 142.838 72.192C141.638 72.192 140.558 71.912 139.598 71.352C138.654 70.792 137.91 70 137.366 68.976C136.838 67.952 136.574 66.768 136.574 65.424C136.574 64.08 136.838 62.904 137.366 61.896C137.91 60.872 138.654 60.088 139.598 59.544C140.558 58.984 141.638 58.704 142.838 58.704ZM148.022 65.448C148.022 64.392 147.806 63.464 147.374 62.664C146.942 61.864 146.35 61.248 145.598 60.816C144.862 60.384 144.046 60.168 143.15 60.168C142.222 60.168 141.39 60.376 140.654 60.792C139.918 61.208 139.334 61.816 138.902 62.616C138.486 63.4 138.278 64.336 138.278 65.424C138.278 66.496 138.486 67.44 138.902 68.256C139.334 69.056 139.918 69.672 140.654 70.104C141.39 70.52 142.222 70.728 143.15 70.728C144.046 70.728 144.862 70.512 145.598 70.08C146.35 69.648 146.942 69.032 147.374 68.232C147.806 67.432 148.022 66.504 148.022 65.448Z" fill="#F5CB5C"/>
</svg>
