<svg width="445" height="432" viewBox="0 0 445 432" fill="none" xmlns="http://www.w3.org/2000/svg">
<g clip-path="url(#clip0)">
<path d="M221.681 129.126C250.379 129.126 273.644 106.541 273.644 78.6817C273.644 50.8219 250.379 28.2372 221.681 28.2372C192.983 28.2372 169.719 50.8219 169.719 78.6817C169.719 106.541 192.983 129.126 221.681 129.126Z" fill="#333533"/>
<path d="M403.579 217.465L355.15 207.657C338.651 204.302 322.361 211.643 313.749 224.695C305.384 220.524 296.389 216.927 286.822 213.942V185.985C286.841 164.833 269.004 147.535 247.292 147.535H197.774C175.946 147.535 158.186 164.833 158.186 185.985V214.09C148.714 217.019 139.815 220.616 131.393 224.806C122.781 211.698 106.471 204.302 89.9525 207.657L41.4843 217.465C20.2103 221.784 6.40298 242.27 10.8526 262.996L23.0176 319.411C27.4291 340.081 48.55 353.485 69.8435 349.166L85.178 346.051C92.8545 357.063 103.473 367.167 117.07 375.806C145.39 393.826 182.801 403.763 222.503 403.763C283.25 403.763 335.576 380.052 359.676 345.995L375.259 349.166C396.533 353.466 417.654 340.081 422.066 319.411L434.249 262.996C438.679 242.27 424.872 221.784 403.579 217.465ZM222.484 384.501C186.62 384.501 153.009 375.732 127.935 359.696C119.341 354.245 112.218 348.183 106.509 341.694L118.253 339.303C139.565 335.002 153.373 314.516 148.923 293.827L138.019 243.104C144.378 239.785 151.062 236.874 158.166 234.39V243.642C158.166 264.757 175.964 282.055 197.753 282.055H247.271C269.004 282.055 286.802 264.739 286.802 243.642V233.908C294.04 236.411 300.838 239.285 307.141 242.548L296.083 293.845C291.672 314.535 305.459 335.021 326.771 339.321L338.63 341.731C316.517 367.149 272.766 384.501 222.484 384.501Z" fill="#333533"/>
<path d="M393.038 195.44C421.736 195.44 445 172.856 445 144.996C445 117.136 421.736 94.5514 393.038 94.5514C364.34 94.5514 341.075 117.136 341.075 144.996C341.075 172.856 364.34 195.44 393.038 195.44Z" fill="#333533"/>
<path d="M62.624 194.383C90.7344 188.673 108.686 161.922 102.88 134.651C96.9599 107.398 69.4604 89.8974 41.3305 95.6076C13.2582 101.299 -4.76944 128.032 1.11257 155.303C6.97598 182.592 34.5136 200.075 62.624 194.383Z" fill="#333533"/>
</g>
<defs>
<clipPath id="clip0">
<rect width="445" height="432" fill="white"/>
</clipPath>
</defs>
</svg>
