<svg width="28" height="28" viewBox="0 0 28 28" fill="none" xmlns="http://www.w3.org/2000/svg">
<path d="M14.0023 8.01896C10.6916 8.01896 8.02124 10.6893 8.02124 14C8.02124 17.3107 10.6916 19.981 14.0023 19.981C17.3129 19.981 19.9833 17.3107 19.9833 14C19.9833 10.6893 17.3129 8.01896 14.0023 8.01896ZM14.0023 17.8885C11.8628 17.8885 10.1138 16.1446 10.1138 14C10.1138 11.8554 11.8576 10.1115 14.0023 10.1115C16.1469 10.1115 17.8907 11.8554 17.8907 14C17.8907 16.1446 16.1417 17.8885 14.0023 17.8885ZM21.623 7.77431C21.623 8.54992 20.9984 9.16936 20.228 9.16936C19.4524 9.16936 18.8329 8.54471 18.8329 7.77431C18.8329 7.00391 19.4576 6.37925 20.228 6.37925C20.9984 6.37925 21.623 7.00391 21.623 7.77431ZM25.5844 9.19019C25.4959 7.32144 25.069 5.66611 23.7 4.30229C22.3362 2.93847 20.6808 2.51162 18.8121 2.41792C16.8861 2.30861 11.1133 2.30861 9.18726 2.41792C7.32371 2.50642 5.66839 2.93326 4.29936 4.29708C2.93033 5.66091 2.50869 7.31623 2.41499 9.18498C2.30568 11.111 2.30568 16.8838 2.41499 18.8098C2.50349 20.6786 2.93033 22.3339 4.29936 23.6977C5.66839 25.0615 7.31851 25.4884 9.18726 25.5821C11.1133 25.6914 16.8861 25.6914 18.8121 25.5821C20.6808 25.4936 22.3362 25.0667 23.7 23.6977C25.0638 22.3339 25.4907 20.6786 25.5844 18.8098C25.6937 16.8838 25.6937 11.1162 25.5844 9.19019ZM23.0962 20.8764C22.6901 21.8966 21.9041 22.6827 20.8787 23.0939C19.343 23.7029 15.6992 23.5624 14.0023 23.5624C12.3053 23.5624 8.6563 23.6977 7.12591 23.0939C6.10564 22.6879 5.31962 21.9018 4.90839 20.8764C4.29936 19.3408 4.43991 15.697 4.43991 14C4.43991 12.303 4.30456 8.65403 4.90839 7.12363C5.31442 6.10337 6.10044 5.31735 7.12591 4.90612C8.66151 4.29708 12.3053 4.43763 14.0023 4.43763C15.6992 4.43763 19.3483 4.30229 20.8787 4.90612C21.8989 5.31214 22.6849 6.09816 23.0962 7.12363C23.7052 8.65923 23.5646 12.303 23.5646 14C23.5646 15.697 23.7052 19.346 23.0962 20.8764Z" fill="white"/>
</svg>
